<svg xmlns="http://www.w3.org/2000/svg" viewBox="0 0 1520 1180" width="1520" height="1180" role="img" aria-labelledby="i9714-title i9714-desc">
  <title id="i9714-title">Taxi plugin architecture: component factories</title>
  <desc id="i9714-desc">
    Taxi UI depends on the abstract classes Taxi Finder, Taxi Selector and on Component
    Factories. Taxi Suppliers depends on Taxi Finder, and Taxi Dispatcher depends on both
    Taxi Selector and Taxi Suppliers. Two plugin packages, Rides and Kittens, hold the
    concrete implementations: Ride Finder Impl and Ride Selector Impl implement Taxi Finder
    and Taxi Selector; Kitten Selector Impl, Kitten Supplier Impl and Kitten Dispatcher Impl
    implement Taxi Selector, Taxi Suppliers and Taxi Dispatcher. Component Factories creates
    every concrete implementation, so new plugins can be added without changing the abstract
    classes or Taxi UI.
  </desc>

  <style>
    .bg { fill: #ffffff; }
    .box { fill: #ffffff; stroke: #1a1a1a; stroke-width: 2; }
    .package { fill: none; stroke: #1a1a1a; stroke-width: 2; }
    .name { font: 700 16px Arial, Helvetica, sans-serif; text-anchor: middle; fill: #1a1a1a; }
    .stereotype { font: italic 12px Arial, Helvetica, sans-serif; text-anchor: middle; fill: #1a1a1a; }
    .package-label { font: italic 15px Arial, Helvetica, sans-serif; fill: #1a1a1a; }
    .edge { fill: none; stroke: #1a1a1a; stroke-width: 1.5; }
    .creates { fill: none; stroke: #1a1a1a; stroke-width: 1.25; stroke-dasharray: 6 5; }
    .edge-label { font: 12px Arial, Helvetica, sans-serif; fill: #333333; }
    .boundary { stroke: #1a1a1a; stroke-width: 4; }
  </style>

  <defs>
    <marker id="arrowOpen5" viewBox="0 0 10 10" refX="9" refY="5" markerWidth="10" markerHeight="10" orient="auto-start-reverse">
      <path d="M1,1 L9,5 L1,9" fill="none" stroke="#1a1a1a" stroke-width="1.5" />
    </marker>
    <marker id="arrowHollow5" viewBox="0 0 12 12" refX="11" refY="6" markerWidth="14" markerHeight="14" orient="auto-start-reverse">
      <path d="M1,1 L11,6 L1,11 Z" fill="#ffffff" stroke="#1a1a1a" stroke-width="1.5" />
    </marker>
  </defs>

  <rect class="bg" x="0" y="0" width="1520" height="1180" />

  <g id="boundaries" aria-label="Package and layer boundaries">
    <line class="boundary" x1="340" y1="20" x2="340" y2="680" />
    <line class="boundary" x1="355" y1="20" x2="355" y2="680" />
    <line class="boundary" x1="800" y1="20" x2="800" y2="680" />
    <line class="boundary" x1="815" y1="20" x2="815" y2="680" />
    <line class="boundary" x1="20" y1="682" x2="1500" y2="682" />
    <line class="boundary" x1="20" y1="697" x2="1500" y2="697" />
    <line class="boundary" x1="20" y1="1000" x2="1500" y2="1000" />
    <line class="boundary" x1="20" y1="1015" x2="1500" y2="1015" />
  </g>

  <g id="abstract-layer" aria-label="Taxi UI and abstract plugin classes">
    <rect class="box" x="40" y="200" width="220" height="90" />
    <text class="name" x="150" y="250">Taxi UI</text>

    <rect class="box" x="420" y="60" width="260" height="90" />
    <text class="stereotype" x="640" y="80">«Abstract»</text>
    <text class="name" x="550" y="115">Taxi Finder</text>

    <rect class="box" x="900" y="60" width="260" height="90" />
    <text class="stereotype" x="1120" y="80">«Abstract»</text>
    <text class="name" x="1030" y="115">Taxi Suppliers</text>

    <rect class="box" x="420" y="320" width="260" height="90" />
    <text class="stereotype" x="640" y="340">«Abstract»</text>
    <text class="name" x="550" y="375">Taxi Selector</text>

    <rect class="box" x="900" y="320" width="260" height="90" />
    <text class="stereotype" x="1120" y="340">«Abstract»</text>
    <text class="name" x="1030" y="375">Taxi Dispatcher</text>
  </g>

  <g id="abstract-relationships" aria-label="Relationships between Taxi UI and the abstract classes">
    <line class="edge" x1="260" y1="230" x2="418" y2="105" marker-end="url(#arrowOpen5)" />
    <line class="edge" x1="260" y1="260" x2="418" y2="365" marker-end="url(#arrowOpen5)" />
    <path class="edge" d="M150,290 L150,1090 L788,1090" marker-end="url(#arrowOpen5)" />

    <line class="edge" x1="900" y1="105" x2="682" y2="105" marker-end="url(#arrowOpen5)" />
    <line class="edge" x1="900" y1="365" x2="682" y2="365" marker-end="url(#arrowOpen5)" />
    <line class="edge" x1="1010" y1="320" x2="1010" y2="152" marker-end="url(#arrowOpen5)" />
  </g>

  <g id="rides-package" aria-label="Rides plugin package">
    <rect class="package" x="340" y="720" width="460" height="270" />
    <text class="package-label" x="370" y="755">Rides</text>

    <rect class="box" x="370" y="880" width="180" height="60" />
    <text class="name" x="460" y="915">Ride Finder Impl</text>

    <rect class="box" x="580" y="880" width="180" height="60" />
    <text class="name" x="670" y="915">Ride Selector Impl</text>
  </g>

  <g id="kittens-package" aria-label="Kittens plugin package">
    <rect class="package" x="820" y="720" width="660" height="270" />
    <text class="package-label" x="850" y="755">Kittens</text>

    <rect class="box" x="840" y="880" width="185" height="60" />
    <text class="name" x="932" y="915">Kitten Selector Impl</text>

    <rect class="box" x="1040" y="880" width="185" height="60" />
    <text class="name" x="1132" y="915">Kitten Supplier Impl</text>

    <rect class="box" x="1240" y="880" width="205" height="60" />
    <text class="name" x="1342" y="915">Kitten Dispatcher Impl</text>
  </g>

  <g id="realizations" aria-label="Concrete classes implement the abstract classes">
    <line class="edge" x1="460" y1="878" x2="548" y2="152" marker-end="url(#arrowHollow5)" />
    <line class="edge" x1="670" y1="878" x2="515" y2="412" marker-end="url(#arrowHollow5)" />
    <line class="edge" x1="932" y1="878" x2="585" y2="412" marker-end="url(#arrowHollow5)" />
    <line class="edge" x1="1132" y1="878" x2="1060" y2="152" marker-end="url(#arrowHollow5)" />
    <line class="edge" x1="1342" y1="878" x2="1030" y2="412" marker-end="url(#arrowHollow5)" />
  </g>

  <g id="component-factories" aria-label="Component Factories creates the concrete implementations">
    <rect class="box" x="790" y="1050" width="240" height="80" />
    <text class="name" x="910" y="1096">Component Factories</text>

    <path class="creates" d="M830,1048 L460,942" marker-end="url(#arrowOpen5)" />
    <path class="creates" d="M865,1048 L670,942" marker-end="url(#arrowOpen5)" />
    <path class="creates" d="M910,1048 L932,942" marker-end="url(#arrowOpen5)" />
    <path class="creates" d="M955,1048 L1132,942" marker-end="url(#arrowOpen5)" />
    <path class="creates" d="M990,1048 L1342,942" marker-end="url(#arrowOpen5)" />
    <text class="edge-label" x="910" y="1010">creates</text>
  </g>
</svg>
